<?xml version="1.0" standalone="no"?>
<!DOCTYPE svg PUBLIC "-//W3C//DTD SVG 20010904//EN"
 "http://www.w3.org/TR/2001/REC-SVG-20010904/DTD/svg10.dtd">
<svg version="1.0" xmlns="http://www.w3.org/2000/svg"
 width="300.000000pt" height="145.000000pt" viewBox="0 0 300.000000 145.000000"
 preserveAspectRatio="xMidYMid meet">
<metadata>
Created by potrace 1.10, written by Peter Selinger 2001-2011
</metadata>
<g transform="translate(0.000000,145.000000) scale(0.100000,-0.100000)"
fill="#114038" stroke="none">
<path d="M778 1443 c7 -3 16 -2 19 1 4 3 -2 6 -13 5 -11 0 -14 -3 -6 -6z"/>
<path d="M1108 1443 c6 -2 18 -2 25 0 6 3 1 5 -13 5 -14 0 -19 -2 -12 -5z"/>
<path d="M1415 1440 c-8 -13 5 -13 25 0 13 8 13 10 -2 10 -9 0 -20 -4 -23 -10z"/>
<path d="M1503 1443 c9 -2 23 -2 30 0 6 3 -1 5 -18 5 -16 0 -22 -2 -12 -5z"/>
<path d="M1561 1433 c-13 -9 -9 -10 21 -4 20 5 39 6 42 3 4 -3 6 -1 6 5 0 14
-49 11 -69 -4z"/>
<path d="M2498 1443 c6 -2 18 -2 25 0 6 3 1 5 -13 5 -14 0 -19 -2 -12 -5z"/>
<path d="M2968 1443 c6 -2 18 -2 25 0 6 3 1 5 -13 5 -14 0 -19 -2 -12 -5z"/>
<path d="M265 1430 c-4 -6 3 -10 14 -10 25 0 27 6 6 13 -8 4 -17 2 -20 -3z"/>
<path d="M923 1433 c-21 -8 -15 -23 10 -22 12 0 16 3 9 6 -6 2 -10 9 -6 14 6
10 5 10 -13 2z"/>
<path d="M1075 1430 c-3 -5 -1 -10 4 -10 6 0 11 5 11 10 0 6 -2 10 -4 10 -3 0
-8 -4 -11 -10z"/>
<path d="M1290 1430 c0 -5 5 -10 10 -10 6 0 10 5 10 10 0 6 -4 10 -10 10 -5 0
-10 -4 -10 -10z"/>
<path d="M1368 1433 c7 -3 16 -2 19 1 4 3 -2 6 -13 5 -11 0 -14 -3 -6 -6z"/>
<path d="M2520 1430 l-25 -8 27 -1 c15 -1 30 4 33 9 7 11 0 11 -35 0z"/>
<path d="M2590 1430 c-11 -8 -9 -9 13 -8 15 1 27 6 27 10 0 11 -22 10 -40 -2z"/>
<path d="M830 1410 c-19 -14 -39 -18 -83 -17 -42 1 -61 -3 -74 -16 -14 -14
-15 -19 -4 -29 11 -11 12 -10 6 2 -8 13 -7 13 9 1 14 -12 23 -12 52 -2 18 7
38 9 44 6 5 -3 10 1 10 9 0 10 9 16 24 16 32 0 86 20 86 32 0 5 -10 6 -21 3
-15 -5 -19 -4 -15 4 11 17 -6 13 -34 -9z"/>
<path d="M1205 1420 c-19 -8 -19 -9 2 -9 12 -1 25 4 28 9 7 12 -2 12 -30 0z"/>
<path d="M1807 1419 c7 -7 15 -10 18 -7 3 3 -2 9 -12 12 -14 6 -15 5 -6 -5z"/>
<path d="M2970 1420 c-9 -6 -10 -10 -3 -10 6 0 15 5 18 10 8 12 4 12 -15 0z"/>
<path d="M2885 1410 c3 -5 8 -10 11 -10 2 0 4 5 4 10 0 6 -5 10 -11 10 -5 0
-7 -4 -4 -10z"/>
<path d="M1242 1394 c-12 -9 3 -11 63 -8 43 2 83 8 89 14 15 15 -132 9 -152
-6z"/>
<path d="M2710 1400 c0 -5 4 -10 9 -10 6 0 13 5 16 10 3 6 -1 10 -9 10 -9 0
-16 -4 -16 -10z"/>
<path d="M109 1387 c-15 -11 -10 -13 28 -15 54 -2 79 9 43 19 -38 11 -53 10
-71 -4z"/>
<path d="M1008 1393 c7 -3 16 -2 19 1 4 3 -2 6 -13 5 -11 0 -14 -3 -6 -6z"/>
<path d="M1468 1393 c7 -3 16 -2 19 1 4 3 -2 6 -13 5 -11 0 -14 -3 -6 -6z"/>
<path d="M2630 1390 c-14 -5 -18 -9 -10 -10 8 -1 2 -6 -15 -10 l-30 -8 33 -1
c17 0 32 4 32 9 0 6 14 10 31 10 17 0 28 4 24 10 -7 11 -29 11 -65 0z"/>
<path d="M2899 1383 c-13 -16 -12 -17 4 -4 16 13 21 21 13 21 -2 0 -10 -8 -17
-17z"/>
<path d="M571 1364 c-31 -17 -47 -21 -52 -13 -5 8 -8 8 -14 -1 -4 -6 -14 -9
-22 -6 -9 4 -22 1 -29 -5 -15 -12 -19 -30 -6 -28 19 3 33 -2 27 -11 -9 -15 8
-12 31 5 18 14 18 14 -6 15 -21 1 -22 2 -8 10 16 10 48 4 48 -9 0 -3 20 -6 45
-7 25 0 45 3 45 8 0 7 -31 13 -52 9 -5 0 -8 4 -8 9 0 6 6 10 13 11 6 0 20 2
29 4 10 2 22 -4 27 -13 5 -9 12 -14 16 -11 3 4 -4 18 -17 32 l-23 25 -44 -24z"/>
<path d="M902 1374 c-12 -8 -26 -13 -30 -10 -5 3 -9 -1 -9 -9 0 -8 2 -15 4
-15 13 0 63 32 63 40 0 13 -2 13 -28 -6z"/>
<path d="M945 1380 c-3 -5 -2 -10 4 -10 5 0 13 5 16 10 3 6 2 10 -4 10 -5 0
-13 -4 -16 -10z"/>
<path d="M1888 1383 c7 -3 16 -2 19 1 4 3 -2 6 -13 5 -11 0 -14 -3 -6 -6z"/>
<path d="M2415 1380 c4 -6 11 -8 16 -5 14 9 11 15 -7 15 -8 0 -12 -5 -9 -10z"/>
<path d="M210 1371 c0 -11 38 -21 56 -14 26 10 14 23 -21 23 -19 0 -35 -4 -35
-9z"/>
<path d="M2306 1372 c-3 -4 4 -9 15 -9 23 -2 25 3 4 10 -8 4 -16 3 -19 -1z"/>
<path d="M2803 1373 c9 -2 23 -2 30 0 6 3 -1 5 -18 5 -16 0 -22 -2 -12 -5z"/>
<path d="M813 1353 c9 -2 23 -2 30 0 6 3 -1 5 -18 5 -16 0 -22 -2 -12 -5z"/>
<path d="M1878 1353 c6 -2 18 -2 25 0 6 3 1 5 -13 5 -14 0 -19 -2 -12 -5z"/>
<path d="M2145 1350 c-3 -5 -2 -10 4 -10 5 0 13 5 16 10 3 6 2 10 -4 10 -5 0
-13 -4 -16 -10z"/>
<path d="M2188 1353 c7 -3 16 -2 19 1 4 3 -2 6 -13 5 -11 0 -14 -3 -6 -6z"/>
<path d="M2383 1343 c9 -2 25 -2 35 0 9 3 1 5 -18 5 -19 0 -27 -2 -17 -5z"/>
<path d="M2453 1343 c9 -2 23 -2 30 0 6 3 -1 5 -18 5 -16 0 -22 -2 -12 -5z"/>
<path d="M308 1333 c7 -3 16 -2 19 1 4 3 -2 6 -13 5 -11 0 -14 -3 -6 -6z"/>
<path d="M755 1329 c-11 -17 1 -21 15 -4 8 9 8 15 2 15 -6 0 -14 -5 -17 -11z"/>
<path d="M2558 1333 c12 -2 30 -2 40 0 9 3 -1 5 -23 4 -22 0 -30 -2 -17 -4z"/>
<path d="M2628 1333 c7 -3 16 -2 19 1 4 3 -2 6 -13 5 -11 0 -14 -3 -6 -6z"/>
<path d="M2678 1333 c7 -3 16 -2 19 1 4 3 -2 6 -13 5 -11 0 -14 -3 -6 -6z"/>
<path d="M70 1316 c-6 -8 -23 -16 -37 -18 -15 -2 -28 -9 -31 -17 -4 -11 16
-13 109 -9 77 2 114 7 117 16 2 6 10 12 18 12 9 0 12 5 8 11 -4 7 -22 9 -45 6
-22 -3 -41 -1 -44 4 -3 5 -15 3 -25 -3 -15 -10 -22 -10 -32 0 -16 16 -23 15
-38 -2z m95 -16 c3 -5 -3 -10 -15 -10 -12 0 -18 5 -15 10 3 6 10 10 15 10 5 0
12 -4 15 -10z"/>
<path d="M1188 1323 c12 -2 30 -2 40 0 9 3 -1 5 -23 4 -22 0 -30 -2 -17 -4z"/>
<path d="M1313 1323 c9 -2 25 -2 35 0 9 3 1 5 -18 5 -19 0 -27 -2 -17 -5z"/>
<path d="M365 1310 c-4 -6 -12 -10 -18 -9 -7 1 -23 -3 -37 -8 -20 -9 -11 -10
46 -9 50 1 70 4 67 13 -3 6 -11 9 -19 6 -8 -3 -14 0 -14 6 0 14 -17 14 -25 1z"/>
<path d="M925 1310 c-13 -6 -2 -7 30 -3 28 3 52 7 54 9 9 8 -65 2 -84 -6z"/>
<path d="M875 1300 c-3 -6 1 -7 9 -4 18 7 21 14 7 14 -6 0 -13 -4 -16 -10z"/>
<path d="M1058 1301 c-127 -14 -205 -32 -228 -53 -26 -24 -33 -41 -61 -157
-13 -52 -26 -86 -30 -79 -10 16 -14 10 -23 -26 -6 -22 -4 -27 7 -23 8 3 70 -2
138 -10 136 -17 179 -18 188 -5 3 5 67 9 141 8 74 0 351 0 615 2 419 3 475 5
442 16 -21 8 -66 41 -100 73 -34 32 -81 74 -104 92 -23 19 -40 37 -38 41 3 5
-11 22 -30 39 -38 33 -101 55 -210 71 -88 14 -604 21 -707 11z m506 -11 c198
-12 294 -26 320 -49 11 -9 16 -10 12 -3 -9 15 -3 15 37 -2 18 -7 41 -24 52
-36 18 -20 15 -20 -23 5 -70 46 -57 22 20 -38 40 -31 102 -85 136 -120 l64
-64 -44 3 c-35 2 -666 3 -733 1 -11 -1 -60 2 -110 5 -49 4 -71 3 -48 -1 52 -9
72 -25 23 -18 -19 3 -55 8 -80 11 -25 4 -58 9 -75 11 -19 3 -25 2 -17 -4 21
-13 -194 -24 -253 -12 -27 5 -53 7 -56 5 -16 -9 -29 24 -20 52 5 16 14 54 21
84 32 138 57 149 380 169 183 12 209 12 394 1z m-551 -337 c-7 -2 -19 -2 -25
0 -7 3 -2 5 12 5 14 0 19 -2 13 -5z"/>
<path d="M525 1290 c4 -6 11 -8 16 -5 14 9 11 15 -7 15 -8 0 -12 -5 -9 -10z"/>
<path d="M814 1290 c-11 -4 -27 -19 -36 -32 -16 -24 -44 -165 -35 -174 3 -3
10 28 17 68 12 72 31 108 57 108 7 0 13 6 13 14 0 8 8 17 18 19 11 3 12 5 2 5
-8 0 -24 -3 -36 -8z"/>
<path d="M648 1283 c6 -2 18 -2 25 0 6 3 1 5 -13 5 -14 0 -19 -2 -12 -5z"/>
<path d="M730 1265 c-7 -8 -18 -15 -26 -15 -16 0 -154 -151 -173 -190 -12 -24
-19 -28 -41 -24 -14 3 -46 0 -71 -6 -24 -7 -59 -14 -78 -16 -19 -1 -41 -9 -49
-18 -13 -13 -11 -19 17 -55 41 -51 70 -60 110 -32 46 33 75 26 144 -38 l27
-25 33 32 c17 18 25 30 15 27 -11 -5 -30 11 -67 55 l-51 61 42 61 c24 34 64
83 90 111 38 41 51 49 72 45 19 -4 24 -2 16 7 -6 8 -6 15 2 23 7 7 9 12 6 12
-3 0 -11 -7 -18 -15z m-175 -310 c63 -66 76 -95 23 -50 -16 14 -39 25 -51 25
-18 0 -19 2 -7 10 16 10 -56 7 -112 -5 -19 -5 -37 -1 -54 10 l-26 17 24 16
c12 9 24 16 25 16 1 -1 24 5 50 12 26 7 52 13 57 13 5 1 36 -28 71 -64z m-207
43 c-2 -6 -15 -13 -29 -14 -23 -4 -23 -3 -5 11 24 18 39 19 34 3z"/>
<path d="M205 1260 c-3 -5 1 -10 9 -10 9 0 16 5 16 10 0 6 -4 10 -9 10 -6 0
-13 -4 -16 -10z"/>
<path d="M8 1253 c7 -3 16 -2 19 1 4 3 -2 6 -13 5 -11 0 -14 -3 -6 -6z"/>
<path d="M480 1249 c0 -5 5 -7 10 -4 6 3 10 8 10 11 0 2 -4 4 -10 4 -5 0 -10
-5 -10 -11z"/>
<path d="M680 1190 c-6 -11 -8 -20 -6 -20 3 0 10 9 16 20 6 11 8 20 6 20 -3 0
-10 -9 -16 -20z"/>
<path d="M650 1140 c-9 -6 -10 -10 -3 -10 6 0 15 5 18 10 8 12 4 12 -15 0z"/>
<path d="M627 1103 c3 -7 6 -13 8 -13 2 0 5 6 8 13 3 8 -1 14 -8 14 -7 0 -11
-6 -8 -14z"/>
<path d="M731 1054 c0 -11 3 -14 6 -6 3 7 2 16 -1 19 -3 4 -6 -2 -5 -13z"/>
<path d="M2295 1021 c-8 -14 -2 -71 7 -71 7 0 13 41 9 63 -1 5 4 7 11 4 14 -4
15 -21 3 -49 -6 -15 4 -16 124 -11 155 7 190 -2 265 -72 l49 -45 119 0 c103 0
118 2 118 16 0 14 -8 16 -52 10 -52 -7 -123 -10 -143 -6 -5 1 -14 2 -18 1 -4
-1 -17 4 -28 9 -31 17 -12 32 34 25 74 -11 97 -12 97 -6 0 4 -38 12 -83 19
-46 7 -112 23 -146 37 -45 18 -83 26 -141 28 -44 1 -80 6 -80 10 0 5 -4 5 -10
2 -5 -3 -10 0 -10 8 0 27 -110 51 -125 28z m81 -49 c-18 -18 -31 -10 -23 12 4
10 13 13 22 9 15 -5 15 -7 1 -21z"/>
<path d="M204 1004 c-18 -14 -18 -15 4 -4 12 6 22 13 22 15 0 8 -5 6 -26 -11z"/>
<path d="M143 958 c-22 -26 -37 -48 -30 -48 3 0 17 16 31 35 30 39 30 46 -1
13z"/>
<path d="M620 953 c14 -3 30 -9 36 -14 7 -6 15 -5 22 3 8 10 0 13 -36 14 -26
1 -36 -1 -22 -3z"/>
<path d="M713 932 c-3 -12 -9 -19 -14 -16 -5 3 -6 -1 -3 -9 3 -8 1 -18 -5 -22
-23 -13 -10 -25 27 -24 23 1 28 3 15 6 -26 5 -27 10 -13 49 6 15 8 29 5 32 -3
4 -8 -4 -12 -16z"/>
<path d="M2230 924 c19 -21 21 -26 7 -21 -11 4 -16 3 -12 -4 4 -6 13 -8 20 -5
16 6 51 -39 88 -109 14 -27 26 -46 27 -42 1 31 -107 190 -138 202 -11 4 -9 -3
8 -21z"/>
<path d="M2433 942 c-9 -6 -7 -13 8 -26 25 -21 17 -35 -8 -15 -9 8 -4 -3 11
-23 31 -41 43 -50 26 -19 -13 26 -13 34 2 25 13 -8 3 12 -20 39 -9 10 -11 17
-4 17 6 0 27 -21 47 -46 32 -44 34 -48 17 -60 -9 -7 -22 -14 -29 -14 -6 0 -14
-4 -18 -9 -9 -16 56 7 69 23 7 10 31 16 66 18 l55 3 1 -40 c1 -22 6 -51 12
-65 5 -14 13 -40 17 -58 9 -45 34 -56 73 -32 35 22 44 37 11 20 -11 -7 -27 -9
-35 -6 -9 3 -12 1 -9 -4 3 -6 2 -10 -3 -10 -5 0 -12 10 -16 23 -9 34 -7 39 10
29 21 -12 64 8 64 28 0 8 -9 34 -20 57 -18 40 -20 42 -54 36 -24 -4 -36 -2
-36 6 0 6 12 11 28 12 23 0 22 2 -13 13 -28 8 -56 9 -94 3 -47 -8 -55 -7 -73
11 -28 28 -14 45 31 39 20 -3 28 -3 18 -1 -9 3 -15 9 -12 14 6 10 -35 1 -51
-11 -7 -6 -18 -1 -29 11 -20 22 -24 23 -42 12z m299 -170 c-3 -21 0 -29 11
-29 9 0 13 6 9 15 -3 10 -1 13 6 8 20 -12 14 -36 -9 -36 -13 0 -18 -4 -14 -12
4 -7 1 -6 -7 3 -7 9 -19 14 -27 11 -8 -3 -11 0 -7 7 4 6 3 11 -3 11 -22 0 -16
35 9 46 33 15 38 11 32 -24z"/>
<path d="M165 920 c-17 -19 -33 -61 -17 -45 4 4 7 11 7 16 0 5 14 18 30 29 19
12 24 20 14 20 -9 0 -24 -9 -34 -20z"/>
<path d="M757 923 c5 -12 3 -14 -7 -8 -8 5 -11 3 -8 -6 5 -16 30 -19 39 -6 4
5 12 6 19 2 8 -5 8 -10 2 -14 -5 -3 45 -6 111 -7 105 -1 113 0 57 7 -36 4 -80
5 -97 2 -19 -3 -33 -1 -33 5 0 10 -60 42 -79 42 -6 0 -7 -7 -4 -17z"/>
<path d="M1115 932 c27 -24 84 -52 89 -43 4 5 -3 13 -15 16 -11 4 -18 9 -16
12 10 9 46 -17 42 -30 -3 -6 4 -18 15 -25 12 -7 20 -8 20 -2 0 5 -4 10 -10 10
-5 0 -10 5 -10 10 0 7 6 7 20 0 11 -6 20 -8 20 -5 0 3 9 1 20 -5 11 -6 17 -16
14 -22 -4 -7 -3 -8 5 -4 14 9 53 -2 46 -14 -3 -4 4 -10 15 -13 71 -19 -33 57
-126 92 -56 21 -144 37 -129 23z"/>
<path d="M1680 930 c151 -5 294 -10 317 -12 23 -2 39 0 35 4 -4 4 -147 10
-317 12 l-310 5 275 -9z"/>
<path d="M2281 916 c9 -12 28 -34 42 -51 14 -16 34 -41 45 -54 17 -22 22 -24
53 -14 l34 11 -34 1 c-29 1 -45 12 -95 64 -34 35 -54 54 -45 43z"/>
<path d="M2803 933 c9 -2 25 -2 35 0 9 3 1 5 -18 5 -19 0 -27 -2 -17 -5z"/>
<path d="M1341 879 c50 -27 112 -66 137 -87 50 -41 94 -69 52 -32 -62 53 -140
107 -188 129 -29 14 -48 28 -42 31 6 4 -3 7 -20 7 -25 0 -16 -8 61 -48z"/>
<path d="M2380 908 c0 -12 3 -18 7 -14 11 10 12 36 2 36 -5 0 -9 -10 -9 -22z"/>
<path d="M2078 913 c12 -2 32 -2 45 0 12 2 2 4 -23 4 -25 0 -35 -2 -22 -4z"/>
<path d="M2978 913 c7 -3 16 -2 19 1 4 3 -2 6 -13 5 -11 0 -14 -3 -6 -6z"/>
<path d="M667 903 c-4 -3 -7 -11 -7 -17 0 -6 5 -5 12 2 6 6 9 14 7 17 -3 3 -9
2 -12 -2z"/>
<path d="M2163 903 c9 -2 25 -2 35 0 9 3 1 5 -18 5 -19 0 -27 -2 -17 -5z"/>
<path d="M109 887 c-3 -16 -5 -24 -16 -57 -23 -69 -45 -356 -23 -305 4 11 7
36 5 55 -1 19 0 25 2 13 2 -13 8 -23 13 -23 4 0 11 -11 14 -24 3 -13 15 -26
27 -29 19 -5 20 -10 14 -74 -3 -37 -8 -77 -10 -88 -4 -22 21 -63 32 -51 4 4 1
11 -6 16 -11 6 -13 27 -8 99 5 59 3 92 -4 97 -6 3 -8 12 -5 20 3 8 1 14 -3 14
-5 0 -7 9 -4 20 3 12 0 20 -7 20 -7 0 -10 7 -6 16 3 8 2 13 -2 10 -14 -9 -42
33 -41 62 1 35 33 135 45 139 5 2 9 -8 9 -21 0 -13 -4 -22 -10 -19 -5 2 -1 -3
9 -11 11 -9 16 -16 12 -16 -5 0 -2 -7 5 -16 13 -16 20 -120 20 -301 -1 -73 2
-84 21 -98 13 -8 30 -15 40 -15 10 0 18 -4 18 -8 0 -4 8 -8 18 -9 43 -4 112
-28 117 -41 12 -33 -14 -42 -121 -42 -97 0 -104 1 -116 23 -7 12 -21 23 -30
23 -22 2 -22 -1 -1 -37 l18 -30 125 3 125 3 22 41 23 41 -63 12 c-85 17 -133
35 -129 50 1 7 -2 10 -8 6 -6 -3 -20 -3 -33 1 l-22 8 25 6 c21 5 117 119 119
142 3 23 -30 -11 -64 -67 -39 -63 -55 -78 -55 -52 0 6 -7 86 -15 177 -15 169
-27 236 -47 274 -7 11 -12 24 -13 28 0 9 -15 23 -16 15z m1 -297 c0 -5 -5 -10
-11 -10 -5 0 -7 5 -4 10 3 6 8 10 11 10 2 0 4 -4 4 -10z m34 -356 c5 -14 4
-15 -9 -4 -17 14 -19 20 -6 20 5 0 12 -7 15 -16z"/>
<path d="M1055 883 c28 -7 46 -23 38 -36 -3 -6 -1 -7 5 -3 6 4 28 -1 49 -10
21 -9 56 -18 78 -20 l40 -3 -50 18 c-28 10 -69 28 -92 40 -23 11 -53 20 -65
20 -21 -1 -21 -2 -3 -6z"/>
<path d="M1540 875 c-47 -9 -33 -10 103 -8 97 2 165 -1 177 -7 14 -7 20 -7 20
0 0 5 10 10 23 10 16 0 19 3 8 9 -19 12 -264 10 -331 -4z"/>
<path d="M1891 874 c0 -11 3 -14 6 -6 3 7 2 16 -1 19 -3 4 -6 -2 -5 -13z"/>
<path d="M2348 883 c7 -3 16 -2 19 1 4 3 -2 6 -13 5 -11 0 -14 -3 -6 -6z"/>
<path d="M1916 869 c3 -5 12 -9 21 -9 19 0 9 13 -12 16 -8 1 -13 -2 -9 -7z"/>
<path d="M2385 870 c-19 -8 -19 -9 3 -9 12 -1 22 4 22 9 0 6 -1 10 -2 9 -2 0
-12 -4 -23 -9z"/>
<path d="M0 855 c0 -16 43 -21 74 -9 31 12 16 24 -29 24 -33 0 -45 -4 -45 -15z"/>
<path d="M820 855 c-7 -8 -1 -23 20 -51 16 -21 30 -44 30 -49 0 -6 13 -26 28
-45 27 -31 36 -35 148 -55 102 -19 121 -20 134 -9 13 13 5 24 -64 87 -89 82
-114 96 -172 97 -50 0 -104 10 -104 19 0 8 130 5 158 -3 13 -4 22 -3 22 3 0 5
7 11 17 13 9 2 -34 4 -95 4 -77 1 -115 -2 -122 -11z m60 -35 c11 0 19 -46 10
-60 -4 -7 -12 2 -20 22 -8 18 -19 37 -24 41 -7 5 -3 6 7 3 10 -3 22 -6 27 -6z
m65 -20 c-4 -6 7 -10 24 -10 23 0 31 -5 31 -17 0 -27 -12 -41 -40 -45 -14 -2
22 -11 79 -20 77 -13 109 -22 123 -38 23 -24 28 -24 -106 -1 -109 19 -144 36
-132 68 3 6 0 14 -7 17 -9 5 -9 7 1 12 6 3 12 14 12 25 0 10 5 19 11 19 5 0 7
-4 4 -10z m124 -40 c6 0 11 -5 11 -11 0 -7 8 -18 18 -25 15 -12 13 -12 -16 -4
-36 10 -38 10 -52 10 -5 0 -10 17 -10 38 l1 37 18 -22 c11 -13 24 -23 30 -23z"/>
<path d="M1994 858 c10 -6 22 -6 26 -2 5 5 -3 10 -18 11 -22 1 -24 0 -8 -9z"/>
<path d="M618 843 c-9 -10 -23 -38 -31 -63 -15 -44 -15 -44 -20 -15 -2 20 -5
11 -6 -25 -2 -30 -4 -68 -6 -85 l-4 -30 10 28 c6 15 15 27 20 27 5 0 9 6 9 13
0 20 43 57 66 57 11 0 29 -7 41 -15 l21 -15 -18 51 c-18 49 -45 89 -60 89 -4
0 -14 -8 -22 -17z m59 -62 c3 -21 0 -23 -24 -18 -18 3 -35 -1 -47 -11 -18 -16
-18 -16 -7 5 13 25 51 55 65 50 5 -2 11 -13 13 -26z"/>
<path d="M2440 841 c0 -5 5 -13 10 -16 6 -3 10 -2 10 4 0 5 -4 13 -10 16 -5 3
-10 2 -10 -4z"/>
<path d="M410 827 c14 -6 28 -16 32 -22 5 -6 8 -5 8 3 0 7 -12 17 -26 22 -35
14 -45 11 -14 -3z"/>
<path d="M570 820 c-6 -11 -8 -20 -6 -20 3 0 10 9 16 20 6 11 8 20 6 20 -3 0
-10 -9 -16 -20z"/>
<path d="M708 823 c7 -3 16 -2 19 1 4 3 -2 6 -13 5 -11 0 -14 -3 -6 -6z"/>
<path d="M2255 820 c3 -5 10 -10 16 -10 5 0 9 5 9 10 0 6 -7 10 -16 10 -8 0
-12 -4 -9 -10z"/>
<path d="M2770 822 c0 -17 13 -22 27 -11 10 9 13 8 14 -2 2 -19 -1 -49 -7 -86
-3 -20 -1 -33 6 -33 5 0 10 7 10 15 0 8 8 15 18 16 10 0 12 3 4 6 -22 9 -2 23
34 23 25 0 33 -4 28 -12 -6 -10 -4 -10 7 0 7 6 30 12 51 12 21 0 38 3 38 8 0
4 -39 7 -87 7 -82 0 -86 1 -88 23 -2 24 -5 23 122 26 29 0 53 4 53 9 0 4 -52
7 -115 7 -63 0 -115 -4 -115 -8z"/>
<path d="M322 798 c2 -13 8 -23 13 -23 6 0 11 10 13 23 2 15 -2 22 -13 22 -11
0 -15 -7 -13 -22z"/>
<path d="M508 803 c7 -3 16 -2 19 1 4 3 -2 6 -13 5 -11 0 -14 -3 -6 -6z"/>
<path d="M2787 770 c3 -11 7 -20 9 -20 2 0 4 9 4 20 0 11 -4 20 -9 20 -5 0 -7
-9 -4 -20z"/>
<path d="M6 763 c-8 -20 -8 -23 5 -23 5 0 8 4 4 9 -3 5 5 11 17 13 l23 3 -22
7 c-14 4 -24 1 -27 -9z"/>
<path d="M230 723 c-32 -50 -35 -60 -21 -82 6 -9 11 -10 15 -2 4 6 2 11 -3 11
-6 0 -11 7 -11 16 0 13 3 14 14 5 10 -8 16 -9 21 -1 4 6 3 9 -2 8 -4 -2 -8 2
-8 7 0 6 4 9 8 7 5 -1 6 2 3 7 -4 5 -2 12 4 16 6 4 8 11 5 16 -4 5 3 9 14 9
12 0 21 7 21 15 0 30 -31 14 -60 -32z"/>
<path d="M300 763 c0 -8 59 -35 85 -39 6 -1 12 -3 15 -4 3 -2 21 -4 41 -5 51
-3 69 -11 69 -32 1 -10 7 -29 14 -42 13 -23 13 -23 14 10 0 22 -6 40 -21 54
-30 28 -65 45 -81 39 -12 -4 -55 4 -113 21 -13 4 -23 3 -23 -2z"/>
<path d="M112 748 c-16 -16 -16 -93 1 -107 17 -13 27 -4 26 23 0 12 -3 15 -6
9 -2 -7 -9 -13 -15 -13 -6 0 -4 8 5 18 20 22 10 91 -11 70z"/>
<path d="M747 753 c18 -2 50 -2 70 0 21 2 7 4 -32 4 -38 0 -55 -2 -38 -4z"/>
<path d="M38 743 c6 -2 9 -10 6 -15 -4 -7 -2 -8 4 -4 18 11 14 26 -5 25 -11 0
-13 -3 -5 -6z"/>
<path d="M500 746 c0 -2 7 -7 16 -10 8 -3 12 -2 9 4 -6 10 -25 14 -25 6z"/>
<path d="M622 718 c-5 -7 -13 -34 -17 -60 l-7 -47 27 8 c26 6 56 51 35 51 -5
0 -12 -9 -15 -20 -9 -30 -22 -24 -23 10 -1 33 16 50 29 29 7 -11 9 -10 9 4 0
18 19 25 21 7 2 -17 1 -60 -1 -67 -1 -5 -2 -24 -1 -43 1 -30 -1 -32 -8 -14
-12 28 -25 36 -46 28 -14 -6 -13 -9 6 -30 12 -13 19 -24 15 -24 -4 0 -2 -9 4
-20 6 -11 15 -18 21 -15 5 4 9 -1 9 -10 0 -8 -7 -18 -15 -21 -8 -4 -12 -10 -9
-15 3 -5 10 -7 15 -4 5 4 9 1 9 -5 0 -7 -7 -9 -17 -5 -15 5 -16 4 -5 -6 6 -7
12 -19 12 -27 0 -7 6 -20 14 -27 12 -12 15 -11 19 5 3 11 1 17 -4 14 -5 -3 -8
22 -6 59 2 56 0 63 -14 60 -9 -3 -20 1 -25 8 -5 9 -2 11 9 6 19 -7 37 19 30
43 -4 13 -3 13 6 0 8 -12 11 -12 17 3 9 23 -3 106 -17 123 -14 17 -63 18 -77
2z"/>
<path d="M1992 688 c-16 -16 -15 -43 3 -58 8 -7 15 -15 15 -19 0 -3 -86 -5
-190 -5 -105 1 -190 -2 -190 -7 0 -4 204 -8 453 -7 248 0 436 3 417 7 -19 3
-125 6 -236 6 l-201 0 4 31 c7 50 -43 84 -75 52z m53 -22 c11 -8 16 -19 12
-30 -8 -21 -19 -20 -47 2 -38 31 -5 57 35 28z"/>
<path d="M2028 643 c7 -3 16 -2 19 1 4 3 -2 6 -13 5 -11 0 -14 -3 -6 -6z"/>
<path d="M2816 673 c-3 -3 -6 -24 -6 -45 0 -33 -3 -38 -23 -38 -31 0 -112 -53
-128 -82 -10 -19 -6 -18 22 8 37 35 89 64 114 64 10 0 15 -9 15 -27 0 -16 5
-35 11 -43 7 -11 9 4 6 54 -4 61 -2 69 14 73 11 3 19 10 19 15 0 6 -7 7 -16 4
-8 -3 -12 -2 -9 3 6 11 -9 23 -19 14z"/>
<path d="M567 621 c-9 -30 -17 -65 -17 -78 0 -13 -7 -40 -15 -60 -8 -19 -15
-53 -15 -74 0 -41 -13 -49 -50 -29 -11 6 -21 6 -24 1 -3 -5 12 -13 34 -19 28
-7 40 -6 43 2 3 6 4 -6 4 -26 -1 -21 -4 -38 -8 -38 -4 0 -9 -7 -13 -15 -3 -9
0 -15 9 -15 8 0 15 8 16 18 0 9 7 -4 14 -30 32 -115 90 -193 154 -202 20 -3
113 -2 206 3 94 4 148 9 120 9 l-50 2 27 23 c14 12 38 41 53 64 16 24 32 40
39 36 6 -3 5 0 -2 8 -11 12 -15 12 -23 -3 -7 -13 -15 -15 -39 -8 -19 5 -28 5
-25 -1 4 -5 15 -9 26 -9 24 0 24 -6 -3 -47 -35 -50 -66 -58 -220 -58 -110 0
-140 3 -153 15 -16 16 -13 18 43 22 6 1 10 3 8 6 -8 7 28 41 37 35 6 -3 7 -1
3 5 -3 6 -2 13 4 17 5 3 10 11 10 16 0 6 -5 7 -11 3 -8 -4 -9 0 -4 15 7 23 -4
26 -40 12 -19 -8 -18 -9 8 -21 27 -13 32 -21 20 -33 -3 -4 -17 3 -30 15 -25
23 -29 64 -14 130 7 29 5 38 -6 42 -8 3 -12 10 -9 15 4 5 0 16 -9 24 -8 8 -16
25 -19 38 -6 34 -17 59 -25 59 -4 0 -5 16 -3 35 3 23 -1 42 -11 53 -9 9 -17
35 -19 57 l-3 40 -18 -54z m33 -75 c0 -12 -5 -27 -10 -32 -7 -7 0 -29 25 -69
19 -32 35 -64 35 -71 0 -7 6 -14 13 -17 9 -3 9 -9 0 -28 -6 -13 -14 -44 -16
-68 -3 -26 -14 -52 -27 -65 -21 -21 -21 -21 -36 -1 -20 27 -42 107 -49 185 -6
59 -4 69 18 102 14 20 21 38 16 40 -7 2 -7 13 0 31 12 32 31 28 31 -7z m78
-356 c16 -26 6 -46 -14 -29 -11 9 -18 9 -26 1 -18 -18 20 -27 56 -14 l31 11
-24 -19 c-31 -26 -44 -25 -78 6 -18 17 -22 24 -10 20 12 -4 21 2 29 19 14 30
19 31 36 5z"/>
<path d="M556 455 c-21 -50 -20 -56 8 -49 21 5 25 1 31 -26 5 -24 10 -29 16
-19 5 8 9 9 9 3 0 -6 -11 -21 -24 -33 -18 -17 -25 -19 -29 -9 -2 7 -7 10 -10
7 -4 -3 1 -31 10 -63 14 -48 19 -57 37 -54 20 3 21 9 20 98 0 84 -3 101 -26
139 l-26 44 -16 -38z m28 -20 c3 -8 1 -15 -4 -15 -6 0 -10 7 -10 15 0 8 2 15
4 15 2 0 6 -7 10 -15z m35 -182 c2 -25 -29 -13 -35 13 -9 34 18 54 28 21 3
-12 6 -28 7 -34z"/>
<path d="M552 360 c0 -14 2 -19 5 -12 2 6 2 18 0 25 -3 6 -5 1 -5 -13z"/>
<path d="M2871 646 c8 -8 129 -12 129 -4 0 4 -30 8 -67 8 -36 0 -64 -2 -62 -4z"/>
<path d="M141 618 c0 -7 4 -22 9 -33 7 -17 9 -15 9 13 1 17 -3 32 -9 32 -5 0
-10 -6 -9 -12z"/>
<path d="M1585 600 c4 -6 -12 -10 -39 -10 -25 0 -46 -3 -46 -7 0 -5 27 -6 60
-5 43 3 60 8 60 18 0 8 -9 14 -21 14 -11 0 -17 -4 -14 -10z"/>
<path d="M2978 603 c7 -3 16 -2 19 1 4 3 -2 6 -13 5 -11 0 -14 -3 -6 -6z"/>
<path d="M2550 591 c0 -8 69 -35 75 -29 2 1 -14 11 -36 20 -21 9 -39 13 -39 9z"/>
<path d="M717 572 c-15 -17 -17 -24 -7 -42 7 -12 10 -33 7 -46 -5 -25 10 -33
19 -10 3 7 4 37 2 66 -3 51 -3 52 -21 32z"/>
<path d="M1020 571 c-44 -10 -66 -34 -108 -114 -49 -93 -39 -94 13 -2 54 97
69 108 135 101 81 -9 104 -14 177 -42 48 -17 70 -21 77 -14 8 8 6 9 -8 4 -13
-5 -17 -4 -12 4 5 8 1 10 -10 5 -11 -4 -15 -3 -11 4 5 7 -1 9 -15 6 -17 -3
-19 -2 -10 5 11 7 8 11 -13 16 -14 4 -30 4 -35 1 -6 -4 -10 -2 -10 3 0 5 -6 9
-12 10 -26 1 -123 14 -128 16 -3 1 -16 0 -30 -3z"/>
<path d="M1580 559 c-110 -11 -145 -27 -180 -84 -30 -49 -26 -125 8 -125 13 0
13 2 -1 18 -21 23 -22 68 -2 76 8 3 15 15 15 27 0 14 5 19 14 16 10 -4 13 -1
9 9 -3 10 0 12 10 8 8 -3 27 2 42 12 16 11 48 18 79 19 29 1 57 4 63 8 6 4 35
4 64 1 30 -3 59 -5 64 -5 6 0 51 2 100 4 56 2 96 0 104 -7 11 -8 13 -8 7 2 -6
9 0 11 24 7 33 -6 60 -26 60 -44 0 -6 5 -11 12 -11 6 0 8 3 5 7 -4 3 -1 13 6
21 10 13 9 14 -3 7 -12 -6 -13 -5 -3 5 9 9 49 14 135 15 132 2 143 0 131 -19
-4 -7 -1 -4 9 6 18 20 56 14 38 -7 -7 -8 -6 -12 4 -12 8 0 13 8 11 18 -4 22
10 33 28 22 6 -4 34 -8 61 -9 28 -2 52 -8 57 -16 5 -7 9 -9 9 -4 0 5 7 3 15
-4 8 -7 12 -17 8 -23 -3 -5 -2 -7 4 -4 14 9 14 -83 0 -112 -7 -13 -34 -35 -62
-48 -50 -23 -28 -22 31 2 55 23 81 117 49 178 -8 15 -9 25 -4 21 6 -3 17 -20
25 -38 7 -17 13 -24 14 -15 0 23 -39 71 -52 63 -6 -4 -14 0 -19 7 -6 11 -56
15 -240 17 -207 3 -233 1 -250 -14 -18 -16 -20 -16 -38 0 -16 15 -42 16 -207
14 -104 -1 -218 -5 -254 -9z m-95 -29 c-3 -5 -12 -10 -18 -10 -7 0 -6 4 3 10
19 12 23 12 15 0z"/>
<path d="M2877 558 c6 -10 123 -10 123 0 0 4 -29 7 -64 7 -35 0 -62 -3 -59 -7z"/>
<path d="M82 442 c3 -74 8 -106 18 -112 11 -7 12 -11 0 -24 -7 -9 -10 -19 -6
-23 3 -3 6 -1 6 7 0 10 3 10 15 0 23 -19 30 -4 11 24 -9 15 -16 46 -16 73 0
37 -3 45 -11 33 -9 -12 -9 -11 -3 5 13 31 10 94 -5 107 -11 11 -12 -6 -9 -90z"/>
<path d="M2486 528 c3 -5 10 -6 15 -3 13 9 11 12 -6 12 -8 0 -12 -4 -9 -9z"/>
<path d="M1995 521 c-3 -5 -2 -12 3 -15 5 -3 9 1 9 9 0 17 -3 19 -12 6z"/>
<path d="M298 435 c-33 -66 -40 -87 -30 -94 27 -17 225 -52 235 -42 7 7 1 14
-19 21 -61 21 -64 27 -49 91 5 19 0 33 -20 58 -15 17 -30 29 -33 26 -3 -3 4
-15 15 -28 25 -27 35 -55 23 -62 -5 -3 -7 -21 -5 -40 3 -31 0 -35 -20 -35 -27
0 -43 18 -23 25 8 3 15 20 16 38 3 30 2 30 -12 12 -7 -10 -12 -25 -9 -31 6
-17 -29 -34 -55 -27 -23 6 -29 27 -12 38 5 3 18 26 29 51 12 25 25 43 31 39 6
-4 10 5 10 19 0 50 -28 26 -72 -59z"/>
<path d="M2868 513 c6 -2 18 -2 25 0 6 3 1 5 -13 5 -14 0 -19 -2 -12 -5z"/>
<path d="M750 501 c0 -6 5 -13 10 -16 6 -4 8 -9 6 -13 -5 -9 12 -31 44 -57 14
-11 19 -13 13 -5 -7 8 -13 24 -13 36 0 13 -5 26 -12 30 -8 5 -9 0 -6 -14 4
-12 3 -20 -2 -17 -4 2 -10 18 -13 35 -6 27 -27 44 -27 21z"/>
<path d="M830 502 c0 -12 63 -43 71 -35 4 4 -10 16 -32 25 -21 9 -39 13 -39
10z"/>
<path d="M1615 501 c-3 -5 -2 -12 3 -15 5 -3 9 1 9 9 0 17 -3 19 -12 6z"/>
<path d="M1725 501 c-3 -5 -2 -12 3 -15 5 -3 9 1 9 9 0 17 -3 19 -12 6z"/>
<path d="M1756 502 c-3 -5 1 -9 9 -9 8 0 12 4 9 9 -3 4 -7 8 -9 8 -2 0 -6 -4
-9 -8z"/>
<path d="M2029 504 c-1 -5 -1 -13 0 -18 1 -5 -7 -6 -18 -3 -23 6 -49 -17 -31
-28 5 -3 10 -21 10 -40 0 -19 5 -37 10 -40 6 -4 7 -11 4 -17 -4 -6 -2 -8 3 -5
18 11 25 -25 9 -41 -12 -13 -18 -13 -31 -2 -13 11 -15 10 -9 -4 9 -23 51 -20
72 5 9 12 25 29 35 38 23 20 22 31 -3 31 -14 0 -20 -6 -18 -17 2 -11 -3 -18
-12 -18 -9 0 -14 7 -12 19 3 13 -1 17 -11 13 -11 -4 -16 5 -21 33 -3 21 -9 47
-12 57 -6 15 -5 16 7 5 14 -13 15 -17 18 -49 2 -32 21 2 23 40 1 32 -10 67
-13 41z"/>
<path d="M2935 500 c19 -8 73 -14 64 -6 -2 2 -22 6 -44 9 -28 5 -34 4 -20 -3z"/>
<path d="M123 428 l0 -73 7 65 c3 36 3 69 0 73 -4 5 -7 -25 -7 -65z"/>
<path d="M450 490 c34 -11 60 -11 35 0 -11 5 -29 8 -40 8 -16 0 -15 -2 5 -8z"/>
<path d="M1331 491 c-9 -6 -5 -10 14 -15 33 -9 44 -1 18 12 -11 6 -25 7 -32 3z"/>
<path d="M2381 484 c6 -7 16 -11 21 -8 11 7 3 17 -18 20 -12 2 -13 -1 -3 -12z"/>
<path d="M2745 488 c-33 -12 -105 -75 -105 -93 0 -7 -11 -25 -25 -41 -14 -16
-23 -35 -20 -43 3 -8 1 -18 -5 -21 -8 -5 -6 -9 4 -13 10 -4 16 -1 16 9 0 8 5
12 10 9 6 -3 10 -1 10 4 0 6 -7 11 -15 11 -19 0 -9 22 27 60 13 13 22 28 21
32 -4 12 62 58 94 64 34 7 34 6 48 -97 5 -35 3 -48 -9 -58 -13 -11 -19 -11
-31 -1 -13 11 -14 10 -9 -6 6 -16 5 -17 -7 -6 -7 6 -20 12 -29 11 -10 0 -11
-2 -2 -6 23 -9 12 -20 -21 -19 -18 1 -44 -1 -58 -5 -19 -6 -16 -7 16 -8 104
-3 173 -14 168 -27 -2 -7 -10 -11 -18 -8 -7 3 -15 -2 -18 -10 -5 -12 0 -16 17
-16 24 0 36 17 36 49 0 15 -8 18 -52 15 -48 -3 -49 -2 -13 4 64 12 68 18 60
76 -19 148 -25 157 -90 134z"/>
<path d="M978 478 c-22 -18 -70 -93 -107 -165 -31 -62 -32 -63 -74 -64 l-42
-2 40 -6 c49 -8 67 5 91 63 l18 43 50 -38 c53 -41 101 -54 171 -46 32 3 28 4
-19 5 -68 2 -138 33 -166 72 -19 26 -19 26 19 76 34 45 40 49 71 45 19 -3 46
-4 60 -4 49 2 155 -20 185 -39 50 -30 52 -20 1 13 -39 26 -65 34 -149 45 -126
17 -130 17 -149 2z"/>
<path d="M2090 481 c-8 -6 -18 -7 -22 -5 -4 3 -8 -11 -8 -30 0 -39 14 -49 23
-16 3 11 0 20 -6 20 -7 0 2 9 18 20 29 19 25 29 -5 11z"/>
<path d="M2968 473 c6 -2 18 -2 25 0 6 3 1 5 -13 5 -14 0 -19 -2 -12 -5z"/>
<path d="M2105 460 c-10 -16 -14 -70 -5 -70 4 0 14 8 21 17 10 11 10 14 2 9
-17 -10 -17 26 -1 42 9 9 9 12 1 12 -7 0 -15 -4 -18 -10z"/>
<path d="M726 418 c-8 -24 -18 -70 -21 -102 -4 -33 -9 -65 -11 -71 -4 -9 3
-11 20 -8 15 3 27 14 31 30 6 24 6 193 0 193 -2 0 -10 -19 -19 -42z m14 -71
c0 -5 -4 -5 -10 -2 -5 3 -10 14 -10 23 0 15 2 15 10 2 5 -8 10 -19 10 -23z
m-14 -66 c-1 -16 -4 -27 -8 -24 -11 6 -10 53 1 53 4 0 8 -13 7 -29z"/>
<path d="M830 442 c0 -5 7 -23 15 -38 l16 -29 -3 34 c-2 19 -9 36 -15 39 -7 2
-13 -1 -13 -6z"/>
<path d="M2393 435 c0 -8 4 -12 9 -9 5 3 6 10 3 15 -9 13 -12 11 -12 -6z"/>
<path d="M2255 421 c-3 -5 -2 -12 3 -15 5 -3 9 1 9 9 0 17 -3 19 -12 6z"/>
<path d="M1337 389 c7 -7 15 -10 18 -7 3 3 -2 9 -12 12 -14 6 -15 5 -6 -5z"/>
<path d="M2393 385 c0 -8 4 -12 9 -9 5 3 6 10 3 15 -9 13 -12 11 -12 -6z"/>
<path d="M1446 377 c5 -14 64 -50 64 -39 0 4 -16 17 -35 29 -19 13 -32 17 -29
10z"/>
<path d="M1885 371 c-3 -5 -2 -12 3 -15 5 -3 9 1 9 9 0 17 -3 19 -12 6z"/>
<path d="M841 350 c0 -14 -4 -36 -7 -50 -5 -22 -4 -23 6 -7 6 9 9 32 7 50 -3
25 -4 26 -6 7z"/>
<path d="M2480 340 c-8 -5 -10 -10 -5 -10 6 0 17 5 25 10 8 5 11 10 5 10 -5 0
-17 -5 -25 -10z"/>
<path d="M1525 330 c3 -5 8 -10 11 -10 2 0 4 5 4 10 0 6 -5 10 -11 10 -5 0 -7
-4 -4 -10z"/>
<path d="M2438 333 c7 -3 16 -2 19 1 4 3 -2 6 -13 5 -11 0 -14 -3 -6 -6z"/>
<path d="M1466 317 c3 -10 9 -15 12 -12 3 3 0 11 -7 18 -10 9 -11 8 -5 -6z"/>
<path d="M1560 319 c0 -5 5 -7 10 -4 6 3 10 8 10 11 0 2 -4 4 -10 4 -5 0 -10
-5 -10 -11z"/>
<path d="M2521 303 c-19 -8 -71 -18 -115 -22 -72 -7 -75 -8 -27 -10 75 -2 178
18 185 35 7 17 1 17 -43 -3z"/>
<path d="M1510 292 c19 -16 46 -22 135 -27 60 -4 126 -5 145 -3 19 3 0 6 -42
6 -42 1 -99 6 -125 12 -26 5 -59 12 -73 14 -14 2 -34 7 -45 11 -16 6 -16 3 5
-13z"/>
<path d="M1750 300 c0 -5 5 -10 11 -10 5 0 7 5 4 10 -3 6 -8 10 -11 10 -2 0
-4 -4 -4 -10z"/>
<path d="M1856 295 c4 -8 11 -15 16 -15 6 0 5 6 -2 15 -7 8 -14 15 -16 15 -2
0 -1 -7 2 -15z"/>
<path d="M2255 300 c-3 -5 -1 -10 4 -10 6 0 11 5 11 10 0 6 -2 10 -4 10 -3 0
-8 -4 -11 -10z"/>
<path d="M1255 290 c-3 -6 1 -7 9 -4 18 7 21 14 7 14 -6 0 -13 -4 -16 -10z"/>
<path d="M2368 293 c7 -3 16 -2 19 1 4 3 -2 6 -13 5 -11 0 -14 -3 -6 -6z"/>
<path d="M156 273 c-6 -14 -5 -15 5 -6 7 7 10 15 7 18 -3 3 -9 -2 -12 -12z"/>
<path d="M909 274 c-21 -12 -22 -13 -4 -13 11 0 29 4 39 8 16 6 17 9 5 13 -8
3 -26 0 -40 -8z"/>
<path d="M458 273 c6 -2 18 -2 25 0 6 3 1 5 -13 5 -14 0 -19 -2 -12 -5z"/>
<path d="M1935 270 l-110 -6 130 -2 c87 -1 125 2 115 8 -8 5 -17 9 -20 8 -3
-1 -54 -5 -115 -8z"/>
<path d="M28 263 c6 -2 18 -2 25 0 6 3 1 5 -13 5 -14 0 -19 -2 -12 -5z"/>
<path d="M1437 258 c-6 -4 15 -7 48 -7 64 1 65 5 2 11 -20 2 -43 0 -50 -4z"/>
<path d="M2388 253 c7 -3 16 -2 19 1 4 3 -2 6 -13 5 -11 0 -14 -3 -6 -6z"/>
<path d="M2548 253 c18 -2 45 -2 60 0 15 2 0 4 -33 4 -33 0 -45 -2 -27 -4z"/>
<path d="M2880 252 c8 -5 26 -13 40 -16 17 -5 20 -4 10 2 -8 5 -26 13 -40 16
-17 5 -20 4 -10 -2z"/>
<path d="M1718 243 c7 -3 16 -2 19 1 4 3 -2 6 -13 5 -11 0 -14 -3 -6 -6z"/>
<path d="M1863 243 c15 -2 39 -2 55 0 15 2 2 4 -28 4 -30 0 -43 -2 -27 -4z"/>
<path d="M2038 243 c18 -2 45 -2 60 0 15 2 0 4 -33 4 -33 0 -45 -2 -27 -4z"/>
<path d="M2168 243 c6 -2 18 -2 25 0 6 3 1 5 -13 5 -14 0 -19 -2 -12 -5z"/>
<path d="M2685 240 c-3 -5 -2 -10 4 -10 5 0 13 5 16 10 3 6 2 10 -4 10 -5 0
-13 -4 -16 -10z"/>
<path d="M2517 233 c18 -2 50 -2 70 0 21 2 7 4 -32 4 -38 0 -55 -2 -38 -4z"/>
<path d="M2735 217 c3 -16 -6 -34 -31 -60 -20 -20 -39 -37 -43 -38 -3 0 -15
-3 -26 -5 -55 -13 -224 -16 -257 -5 -34 11 -114 92 -102 103 8 9 -131 2 -145
-7 -9 -5 -12 -4 -8 3 5 7 -9 10 -38 10 -25 -1 -45 -4 -45 -7 0 -3 -56 -6 -125
-6 -69 1 -125 -3 -125 -7 0 -4 -13 -8 -30 -8 -17 0 -30 5 -30 13 0 8 -3 9 -8
1 -4 -6 -36 -12 -72 -13 -36 -2 -67 -5 -70 -8 -3 -3 150 -3 340 -1 l345 3 29
-33 c49 -55 71 -62 212 -62 108 0 134 3 170 20 47 23 98 88 88 113 -10 26 -33
21 -29 -6z"/>
<path d="M2373 223 c9 -2 23 -2 30 0 6 3 -1 5 -18 5 -16 0 -22 -2 -12 -5z"/>
<path d="M420 210 c-23 -7 -23 -8 -3 -9 12 -1 25 4 28 9 3 6 5 10 3 9 -2 -1
-14 -5 -28 -9z"/>
<path d="M464 212 c4 -3 14 -7 22 -8 9 -1 13 0 10 4 -4 3 -14 7 -22 8 -9 1
-13 0 -10 -4z"/>
<path d="M2298 213 c6 -2 18 -2 25 0 6 3 1 5 -13 5 -14 0 -19 -2 -12 -5z"/>
<path d="M1118 203 c7 -3 16 -2 19 1 4 3 -2 6 -13 5 -11 0 -14 -3 -6 -6z"/>
<path d="M958 185 c-3 -3 -25 -9 -49 -14 -38 -8 -40 -9 -13 -10 18 -1 47 6 65
14 19 8 27 14 18 15 -9 0 -18 -2 -21 -5z"/>
<path d="M1123 183 c9 -2 25 -2 35 0 9 3 1 5 -18 5 -19 0 -27 -2 -17 -5z"/>
<path d="M1415 180 c-3 -6 1 -7 9 -4 18 7 21 14 7 14 -6 0 -13 -4 -16 -10z"/>
<path d="M1508 183 c7 -3 16 -2 19 1 4 3 -2 6 -13 5 -11 0 -14 -3 -6 -6z"/>
<path d="M1548 183 c7 -3 16 -2 19 1 4 3 -2 6 -13 5 -11 0 -14 -3 -6 -6z"/>
<path d="M793 173 c15 -2 37 -2 50 0 12 2 0 4 -28 4 -27 0 -38 -2 -22 -4z"/>
<path d="M1207 173 c18 -2 50 -2 70 0 21 2 7 4 -32 4 -38 0 -55 -2 -38 -4z"/>
<path d="M1328 173 c6 -2 18 -2 25 0 6 3 1 5 -13 5 -14 0 -19 -2 -12 -5z"/>
<path d="M2095 151 c-3 -5 -1 -12 5 -16 5 -3 10 -4 10 -1 0 3 11 1 25 -4 15
-6 34 -6 47 0 21 8 20 9 -10 9 -18 1 -42 6 -52 11 -12 6 -21 6 -25 1z"/>
<path d="M2200 110 c-31 -5 -32 -6 -10 -10 27 -5 135 5 110 10 -28 6 -65 6
-100 0z"/>
<path d="M1068 103 c6 -2 18 -2 25 0 6 3 1 5 -13 5 -14 0 -19 -2 -12 -5z"/>
<path d="M2100 100 c0 -5 5 -10 11 -10 5 0 7 5 4 10 -3 6 -8 10 -11 10 -2 0
-4 -4 -4 -10z"/>
<path d="M1108 83 c7 -3 16 -2 19 1 4 3 -2 6 -13 5 -11 0 -14 -3 -6 -6z"/>
<path d="M1168 83 c6 -2 18 -2 25 0 6 3 1 5 -13 5 -14 0 -19 -2 -12 -5z"/>
<path d="M1379 77 c12 -15 71 -21 71 -8 0 6 -5 13 -12 17 -7 4 -8 3 -4 -4 9
-14 9 -14 -32 -2 -27 7 -31 6 -23 -3z"/>
<path d="M1500 80 c0 -5 5 -10 11 -10 5 0 7 5 4 10 -3 6 -8 10 -11 10 -2 0 -4
-4 -4 -10z"/>
<path d="M1347 69 c7 -7 15 -10 18 -7 3 3 -2 9 -12 12 -14 6 -15 5 -6 -5z"/>
<path d="M1465 70 c-3 -5 1 -10 10 -10 9 0 13 5 10 10 -3 6 -8 10 -10 10 -2 0
-7 -4 -10 -10z"/>
<path d="M2648 72 c-31 -6 -20 -19 16 -18 20 1 32 5 29 12 -4 11 -15 13 -45 6z"/>
<path d="M1103 63 c9 -2 25 -2 35 0 9 3 1 5 -18 5 -19 0 -27 -2 -17 -5z"/>
<path d="M1198 63 c17 -2 47 -2 65 0 17 2 3 4 -33 4 -36 0 -50 -2 -32 -4z"/>
<path d="M2569 53 c-13 -16 -12 -17 3 -4 10 7 25 11 33 7 9 -3 13 -2 10 4 -10
15 -31 12 -46 -7z"/>
<path d="M2725 60 c3 -5 8 -10 11 -10 2 0 4 5 4 10 0 6 -5 10 -11 10 -5 0 -7
-4 -4 -10z"/>
<path d="M2260 40 c8 -5 28 -10 44 -10 39 0 30 6 -19 13 -27 4 -35 3 -25 -3z"/>
<path d="M2415 40 c3 -5 8 -10 11 -10 2 0 4 5 4 10 0 6 -5 10 -11 10 -5 0 -7
-4 -4 -10z"/>
<path d="M1945 30 l-40 -7 43 -2 c23 0 42 4 42 9 0 6 -1 9 -2 9 -2 -1 -21 -5
-43 -9z"/>
<path d="M2020 29 c-19 -5 -14 -7 23 -8 26 -1 47 1 47 3 0 8 -46 12 -70 5z"/>
<path d="M2170 30 c0 -5 5 -10 10 -10 6 0 10 5 10 10 0 6 -4 10 -10 10 -5 0
-10 -4 -10 -10z"/>
<path d="M2200 29 c0 -5 10 -9 22 -9 12 0 18 3 14 7 -10 11 -36 12 -36 2z"/>
<path d="M2348 33 c7 -3 16 -2 19 1 4 3 -2 6 -13 5 -11 0 -14 -3 -6 -6z"/>
<path d="M1740 20 c0 -5 5 -10 10 -10 6 0 10 5 10 10 0 6 -4 10 -10 10 -5 0
-10 -4 -10 -10z"/>
<path d="M1858 23 c7 -3 16 -2 19 1 4 3 -2 6 -13 5 -11 0 -14 -3 -6 -6z"/>
<path d="M2123 23 c9 -2 23 -2 30 0 6 3 -1 5 -18 5 -16 0 -22 -2 -12 -5z"/>
</g>
</svg>
